<svg xmlns="http://www.w3.org/2000/svg" xmlns:xlink="http://www.w3.org/1999/xlink" width="1366" zoomAndPan="magnify" viewBox="0 0 1024.5 576" height="768" preserveAspectRatio="xMidYMid meet" version="1.0"><defs><g/><clipPath id="1c31527f84"><path d="M 0 0.140625 L 1024 0.140625 L 1024 575.859375 L 0 575.859375 Z M 0 0.140625 " clip-rule="nonzero"/></clipPath><clipPath id="095dd34c68"><path d="M 273.433594 145.054688 L 750.203125 145.054688 L 750.203125 415 L 273.433594 415 Z M 273.433594 145.054688 " clip-rule="nonzero"/></clipPath><clipPath id="0984de0ff9"><path d="M 328.597656 409 L 432 409 L 432 507.988281 L 328.597656 507.988281 Z M 328.597656 409 " clip-rule="nonzero"/></clipPath><clipPath id="537617b8d8"><path d="M 460 384 L 606 384 L 606 507.988281 L 460 507.988281 Z M 460 384 " clip-rule="nonzero"/></clipPath><clipPath id="b788e937f3"><path d="M 637 354.3125 L 737.894531 354.3125 L 737.894531 453 L 637 453 Z M 637 354.3125 " clip-rule="nonzero"/></clipPath></defs><g clip-path="url(#1c31527f84)"><path fill="#ffffff" d="M 0 0.140625 L 1024 0.140625 L 1024 575.859375 L 0 575.859375 Z M 0 0.140625 " fill-opacity="1" fill-rule="nonzero"/><path fill="#0d0149" d="M 0 0.140625 L 1024 0.140625 L 1024 575.859375 L 0 575.859375 Z M 0 0.140625 " fill-opacity="1" fill-rule="nonzero"/></g><g clip-path="url(#095dd34c68)"><path fill="#f2f2f2" d="M 393.199219 364.085938 C 393.199219 367.367188 388.105469 367.367188 388.105469 364.085938 C 388.105469 360.804688 393.199219 360.808594 393.199219 364.085938 Z M 369.65625 343.648438 C 369.515625 343.882812 369.445312 344.140625 369.445312 344.417969 C 369.445312 344.691406 369.515625 344.949219 369.65625 345.1875 L 369.984375 345.675781 C 370.128906 345.921875 370.324219 346.117188 370.574219 346.265625 C 370.828125 346.414062 371.105469 346.488281 371.402344 346.488281 C 371.851562 346.480469 372.242188 346.324219 372.566406 346.011719 C 372.867188 345.683594 373.023438 345.292969 373.042969 344.847656 C 373.042969 344.558594 372.96875 344.285156 372.824219 344.03125 C 372.679688 343.777344 372.480469 343.578125 372.226562 343.429688 L 371.738281 343.105469 C 371.503906 342.960938 371.246094 342.890625 370.96875 342.890625 C 370.695312 342.890625 370.4375 342.960938 370.199219 343.105469 C 369.972656 343.238281 369.792969 343.417969 369.65625 343.644531 Z M 359.714844 360.71875 C 359.714844 364 364.808594 364 364.808594 360.71875 C 364.808594 357.4375 359.714844 357.433594 359.714844 360.71875 Z M 402.050781 348.210938 C 402.050781 351.492188 407.144531 351.492188 407.144531 348.210938 C 407.144531 344.929688 402.054688 344.921875 402.054688 348.210938 Z M 378.324219 257.296875 C 378.324219 260.582031 383.417969 260.582031 383.417969 257.296875 C 383.417969 254.015625 378.324219 254.015625 378.324219 257.296875 Z M 368.214844 264.515625 C 368.214844 267.796875 373.308594 267.796875 373.308594 264.515625 C 373.308594 261.230469 368.214844 261.230469 368.214844 264.515625 Z M 358.59375 240.460938 C 358.59375 243.742188 363.6875 243.742188 363.6875 240.460938 C 363.6875 237.179688 358.59375 237.179688 358.59375 240.460938 Z M 273.433594 216.28125 C 273.433594 219.5625 278.527344 219.5625 278.527344 216.28125 C 278.527344 213 273.433594 213 273.433594 216.28125 Z M 291.234375 214.835938 C 291.234375 218.121094 296.328125 218.121094 296.328125 214.835938 C 296.328125 211.554688 291.234375 211.554688 291.234375 214.835938 Z M 281.554688 140.949219 C 281.476562 141.085938 281.429688 141.230469 281.414062 141.386719 C 281.355469 141.441406 281.304688 141.503906 281.257812 141.570312 C 281.140625 141.765625 281.089844 141.980469 281.105469 142.207031 C 281.121094 142.433594 281.199219 142.640625 281.335938 142.820312 C 281.476562 143 281.652344 143.128906 281.871094 143.199219 C 282.085938 143.273438 282.304688 143.277344 282.527344 143.21875 L 282.527344 143.207031 C 283.050781 143.0625 283.394531 142.730469 283.550781 142.207031 C 283.660156 141.875 283.652344 141.542969 283.539062 141.214844 C 283.449219 140.9375 283.285156 140.722656 283.039062 140.566406 C 282.914062 140.492188 282.78125 140.445312 282.640625 140.425781 C 282.496094 140.40625 282.355469 140.414062 282.214844 140.453125 C 282.078125 140.488281 281.949219 140.550781 281.835938 140.636719 C 281.722656 140.722656 281.628906 140.828125 281.554688 140.953125 Z M 346.4375 196.769531 C 346.4375 200.050781 351.527344 200.050781 351.527344 196.769531 C 351.527344 193.488281 346.4375 193.488281 346.4375 196.769531 Z M 321.828125 135.464844 C 321.828125 132.191406 316.734375 132.183594 316.734375 135.464844 C 316.734375 138.75 321.828125 138.746094 321.828125 135.464844 Z M 734.332031 244.691406 C 734.332031 247.972656 739.425781 247.972656 739.425781 244.691406 C 739.425781 241.410156 734.332031 241.410156 734.332031 244.691406 Z M 715.03125 246.488281 C 715.03125 249.769531 720.125 249.769531 720.125 246.488281 C 720.125 243.203125 715.03125 243.203125 715.03125 246.488281 Z M 717.726562 235.714844 C 717.726562 238.996094 722.816406 238.996094 722.816406 235.714844 C 722.816406 232.433594 717.726562 232.433594 717.726562 235.714844 Z M 742.863281 150.433594 C 742.863281 153.71875 747.957031 153.71875 747.957031 150.433594 C 747.957031 147.152344 742.863281 147.152344 742.863281 150.433594 Z M 720.417969 154.023438 C 720.417969 157.304688 725.511719 157.308594 725.511719 154.023438 C 725.511719 150.742188 720.417969 150.746094 720.417969 154.027344 Z M 745.109375 132.480469 C 745.109375 135.761719 750.203125 135.761719 750.203125 132.480469 C 750.203125 129.195312 745.109375 129.199219 745.109375 132.484375 Z M 467.746094 152.839844 C 467.746094 149.5625 462.652344 149.558594 462.652344 152.839844 C 462.652344 156.125 467.746094 156.128906 467.746094 152.84375 Z M 426.0625 162.121094 C 426.0625 165.40625 431.15625 165.40625 431.15625 162.121094 C 431.15625 158.839844 426.0625 158.847656 426.0625 162.128906 Z M 430.429688 135.917969 C 430.429688 139.199219 435.523438 139.199219 435.523438 135.917969 C 435.523438 132.636719 430.429688 132.640625 430.429688 135.921875 Z M 332.347656 328.636719 C 332.109375 328.5 331.855469 328.414062 331.585938 328.375 C 331.316406 328.339844 331.046875 328.355469 330.785156 328.421875 C 330.519531 328.492188 330.277344 328.609375 330.058594 328.773438 C 329.84375 328.941406 329.664062 329.140625 329.527344 329.375 L 329.320312 329.867188 C 329.234375 330.136719 329.21875 330.414062 329.28125 330.691406 C 329.289062 330.761719 329.304688 330.832031 329.320312 330.898438 L 329.320312 330.914062 L 329.378906 331.347656 L 329.542969 331.734375 C 329.640625 331.921875 329.78125 332.074219 329.960938 332.191406 C 330.0625 332.292969 330.179688 332.359375 330.320312 332.398438 C 330.445312 332.472656 330.582031 332.511719 330.726562 332.511719 C 330.871094 332.550781 331.015625 332.550781 331.160156 332.511719 C 331.269531 332.503906 331.378906 332.484375 331.484375 332.449219 L 331.867188 332.398438 C 332.128906 332.339844 332.363281 332.214844 332.5625 332.03125 C 332.789062 331.882812 332.964844 331.691406 333.09375 331.453125 C 333.242188 331.21875 333.324219 330.964844 333.335938 330.691406 C 333.386719 330.28125 333.320312 329.890625 333.140625 329.519531 C 332.960938 329.148438 332.695312 328.855469 332.347656 328.636719 Z M 320.078125 346.226562 C 320.078125 346.199219 320.078125 346.171875 320.078125 346.140625 C 320.085938 345.746094 320.113281 345.339844 320.09375 344.945312 C 320.078125 344.527344 319.972656 344.132812 319.777344 343.761719 C 319.707031 343.640625 319.625 343.527344 319.527344 343.425781 C 319.429688 343.324219 319.320312 343.234375 319.203125 343.160156 C 319.082031 343.085938 318.953125 343.023438 318.820312 342.980469 C 318.6875 342.9375 318.546875 342.914062 318.40625 342.902344 C 318.265625 342.894531 318.125 342.90625 317.988281 342.929688 C 317.847656 342.957031 317.714844 343 317.589844 343.058594 C 317.460938 343.121094 317.34375 343.195312 317.234375 343.285156 C 317.125 343.375 317.027344 343.476562 316.945312 343.589844 C 316.667969 343.976562 316.519531 344.40625 316.496094 344.882812 C 316.480469 345.304688 316.484375 345.722656 316.507812 346.140625 C 316.503906 346.378906 316.542969 346.609375 316.628906 346.828125 C 316.714844 347.046875 316.839844 347.246094 317 347.414062 C 317.164062 347.585938 317.355469 347.71875 317.570312 347.816406 C 317.789062 347.910156 318.015625 347.960938 318.25 347.96875 C 318.488281 347.972656 318.71875 347.933594 318.9375 347.847656 C 319.160156 347.761719 319.355469 347.636719 319.527344 347.476562 C 319.695312 347.3125 319.832031 347.121094 319.925781 346.90625 C 320.019531 346.6875 320.070312 346.460938 320.078125 346.226562 Z M 331.039062 304.640625 C 331.039062 307.921875 336.132812 307.921875 336.132812 304.640625 C 336.132812 301.359375 331.039062 301.355469 331.039062 304.640625 Z M 358.421875 326.742188 L 359.023438 326.253906 C 359.199219 326.078125 359.3125 325.871094 359.359375 325.628906 C 359.40625 325.386719 359.382812 325.152344 359.289062 324.921875 C 359.195312 324.695312 359.042969 324.511719 358.839844 324.375 C 358.632812 324.234375 358.40625 324.167969 358.160156 324.167969 C 357.820312 324.164062 357.53125 324.28125 357.296875 324.523438 L 356.804688 325.128906 C 356.597656 325.355469 356.484375 325.625 356.46875 325.933594 C 356.46875 326.085938 356.5 326.234375 356.558594 326.375 C 356.617188 326.511719 356.699219 326.636719 356.804688 326.746094 C 356.914062 326.851562 357.035156 326.933594 357.175781 326.992188 C 357.316406 327.050781 357.460938 327.078125 357.613281 327.078125 L 357.917969 327.039062 C 358.113281 326.984375 358.28125 326.886719 358.421875 326.742188 Z M 280.972656 257.683594 C 280.972656 254.40625 275.878906 254.402344 275.878906 257.683594 C 275.878906 260.964844 280.972656 260.964844 280.972656 257.683594 Z M 326.667969 102.609375 C 326.667969 105.894531 331.761719 105.894531 331.761719 102.609375 C 331.761719 99.328125 326.667969 99.332031 326.667969 102.609375 Z M 303.3125 127.183594 C 303.320312 126.992188 303.289062 126.8125 303.222656 126.632812 C 303.15625 126.457031 303.058594 126.300781 302.925781 126.164062 C 302.796875 126.027344 302.644531 125.917969 302.472656 125.84375 C 302.296875 125.769531 302.117188 125.730469 301.925781 125.726562 C 301.738281 125.722656 301.554688 125.757812 301.378906 125.832031 C 301.203125 125.902344 301.050781 126.003906 300.917969 126.136719 C 300.78125 126.273438 300.679688 126.425781 300.609375 126.601562 C 300.539062 126.777344 300.503906 126.960938 300.503906 127.148438 C 300.507812 127.335938 300.546875 127.519531 300.621094 127.691406 C 300.699219 127.867188 300.804688 128.019531 300.941406 128.148438 C 301.078125 128.277344 301.234375 128.378906 301.414062 128.445312 C 301.589844 128.511719 301.773438 128.542969 301.960938 128.535156 C 302.136719 128.527344 302.308594 128.488281 302.472656 128.417969 C 302.632812 128.347656 302.777344 128.25 302.902344 128.125 C 303.027344 128 303.125 127.855469 303.199219 127.691406 C 303.269531 127.53125 303.308594 127.359375 303.3125 127.183594 Z M 484.121094 317.148438 L 484.003906 317.453125 C 482.136719 322.496094 491.957031 322.527344 490.078125 317.453125 L 489.964844 317.148438 C 489.867188 316.835938 489.722656 316.546875 489.535156 316.28125 C 489.34375 316.015625 489.117188 315.789062 488.855469 315.59375 C 488.59375 315.402344 488.304688 315.253906 487.996094 315.152344 C 487.6875 315.050781 487.367188 315 487.042969 315 C 486.714844 315 486.398438 315.050781 486.085938 315.152344 C 485.777344 315.253906 485.492188 315.402344 485.226562 315.59375 C 484.964844 315.789062 484.738281 316.015625 484.550781 316.28125 C 484.359375 316.546875 484.21875 316.835938 484.121094 317.148438 Z M 462.652344 328.125 C 462.652344 331.40625 467.746094 331.40625 467.746094 328.125 C 467.746094 324.839844 462.652344 324.839844 462.652344 328.125 Z M 674.578125 324.105469 C 674.082031 324.253906 673.699219 324.550781 673.429688 324.988281 C 673.164062 325.457031 673.101562 325.953125 673.238281 326.472656 C 673.34375 326.871094 673.523438 327.238281 673.773438 327.574219 C 673.984375 327.855469 674.242188 328.089844 674.546875 328.273438 C 674.640625 328.335938 674.742188 328.394531 674.84375 328.457031 C 675.414062 328.78125 676.019531 328.859375 676.65625 328.691406 C 676.976562 328.597656 677.265625 328.441406 677.523438 328.226562 C 677.777344 328.007812 677.980469 327.75 678.125 327.445312 C 678.269531 327.144531 678.347656 326.824219 678.355469 326.488281 C 678.363281 326.15625 678.304688 325.832031 678.175781 325.523438 C 678.078125 325.226562 677.917969 324.976562 677.691406 324.765625 C 677.398438 324.476562 677.054688 324.273438 676.65625 324.164062 L 676.648438 324.164062 C 676.300781 324 675.9375 323.917969 675.554688 323.917969 C 675.21875 323.929688 674.894531 323.992188 674.578125 324.105469 Z M 624.847656 271.875 C 624.847656 275.15625 629.941406 275.15625 629.941406 271.875 C 629.941406 268.589844 624.847656 268.59375 624.847656 271.875 Z M 646.691406 253.316406 C 646.691406 256.597656 651.785156 256.597656 651.785156 253.316406 C 651.785156 250.03125 646.691406 250.03125 646.691406 253.316406 Z M 622.117188 247.855469 C 622.117188 251.136719 627.210938 251.136719 627.210938 247.855469 C 627.210938 244.574219 622.117188 244.570312 622.117188 247.855469 Z M 715.949219 346.683594 C 715.949219 349.964844 721.042969 349.964844 721.042969 346.683594 C 721.042969 343.402344 715.949219 343.398438 715.949219 346.683594 Z M 594.273438 396.917969 C 594.265625 397.113281 594.296875 397.300781 594.363281 397.484375 C 594.433594 397.664062 594.535156 397.828125 594.667969 397.96875 C 594.804688 398.109375 594.960938 398.21875 595.140625 398.296875 C 595.316406 398.375 595.503906 398.414062 595.699219 398.414062 C 595.894531 398.417969 596.082031 398.382812 596.261719 398.308594 C 596.441406 398.234375 596.601562 398.128906 596.738281 397.992188 C 596.875 397.855469 596.980469 397.695312 597.054688 397.515625 C 597.128906 397.335938 597.164062 397.148438 597.160156 396.953125 C 597.15625 396.757812 597.117188 396.574219 597.039062 396.394531 C 596.960938 396.214844 596.851562 396.058594 596.710938 395.925781 C 596.570312 395.792969 596.410156 395.691406 596.226562 395.621094 C 596.046875 395.550781 595.859375 395.519531 595.664062 395.527344 C 595.480469 395.535156 595.304688 395.574219 595.140625 395.648438 C 594.972656 395.71875 594.824219 395.820312 594.695312 395.949219 C 594.566406 396.078125 594.464844 396.226562 594.390625 396.394531 C 594.320312 396.5625 594.277344 396.738281 594.273438 396.917969 Z M 559.859375 127.730469 C 559.859375 131.011719 564.953125 131.011719 564.953125 127.730469 C 564.953125 124.449219 559.859375 124.445312 559.859375 127.730469 Z M 540.746094 127.730469 C 540.746094 131.011719 545.839844 131.011719 545.839844 127.730469 C 545.839844 124.449219 540.746094 124.445312 540.746094 127.730469 Z M 487.355469 201.5 C 487.355469 204.78125 492.445312 204.78125 492.445312 201.5 C 492.445312 198.21875 487.355469 198.21875 487.355469 201.5 Z M 379.332031 203.78125 C 379.332031 207.0625 384.425781 207.0625 384.425781 203.78125 C 384.425781 200.496094 379.332031 200.5 379.332031 203.78125 Z M 562.886719 386.632812 C 562.886719 389.914062 567.980469 389.914062 567.980469 386.632812 C 567.980469 383.351562 562.886719 383.351562 562.886719 386.632812 Z M 516.996094 412.34375 C 516.996094 415.628906 522.085938 415.625 522.085938 412.34375 C 522.085938 409.0625 516.996094 409.0625 516.996094 412.34375 Z M 281.175781 393.074219 C 281.175781 396.359375 286.269531 396.359375 286.269531 393.074219 C 286.269531 389.792969 281.175781 389.792969 281.175781 393.074219 Z M 299.914062 406.523438 C 299.914062 409.808594 305.007812 409.808594 305.007812 406.523438 C 305.007812 403.242188 299.914062 403.242188 299.914062 406.523438 Z M 504.078125 390.195312 C 504.078125 393.476562 509.171875 393.476562 509.171875 390.195312 C 509.171875 386.914062 504.078125 386.914062 504.078125 390.195312 Z M 480.679688 124.710938 C 480.679688 127.996094 485.773438 127.996094 485.773438 124.710938 C 485.773438 121.429688 480.679688 121.429688 480.679688 124.710938 Z M 480.679688 124.710938 " fill-opacity="1" fill-rule="nonzero"/></g><g fill="#9f8bff" fill-opacity="1"><g transform="translate(339.461765, 290.101649)"><g><path d="M 35.5 0.953125 C 29.425781 0.953125 24.003906 -0.40625 19.234375 -3.125 C 14.472656 -5.84375 10.71875 -9.613281 7.96875 -14.4375 C 5.21875 -19.269531 3.84375 -24.789062 3.84375 -31 C 3.84375 -36.113281 4.738281 -40.925781 6.53125 -45.4375 C 8.320312 -49.945312 10.816406 -53.894531 14.015625 -57.28125 C 17.210938 -60.675781 20.984375 -63.332031 25.328125 -65.25 C 29.679688 -67.164062 34.414062 -68.125 39.53125 -68.125 C 45.988281 -68.125 51.582031 -66.679688 56.3125 -63.796875 C 61.050781 -60.921875 64.71875 -57.035156 67.3125 -52.140625 C 69.90625 -47.253906 71.203125 -41.707031 71.203125 -35.5 C 71.203125 -30.320312 70.320312 -25.523438 68.5625 -21.109375 C 66.800781 -16.691406 64.320312 -12.820312 61.125 -9.5 C 57.925781 -6.175781 54.148438 -3.601562 49.796875 -1.78125 C 45.453125 0.0390625 40.6875 0.953125 35.5 0.953125 Z M 40.5 -6.625 C 44.59375 -6.625 47.914062 -7.597656 50.46875 -9.546875 C 53.03125 -11.492188 54.914062 -14.113281 56.125 -17.40625 C 57.34375 -20.707031 57.953125 -24.304688 57.953125 -28.203125 C 57.953125 -32.234375 57.425781 -36.21875 56.375 -40.15625 C 55.320312 -44.09375 53.800781 -47.660156 51.8125 -50.859375 C 49.832031 -54.054688 47.429688 -56.597656 44.609375 -58.484375 C 41.796875 -60.367188 38.597656 -61.3125 35.015625 -61.3125 C 31.054688 -61.3125 27.734375 -60.285156 25.046875 -58.234375 C 22.359375 -56.191406 20.359375 -53.539062 19.046875 -50.28125 C 17.734375 -47.019531 17.078125 -43.5 17.078125 -39.71875 C 17.078125 -35.5625 17.617188 -31.515625 18.703125 -27.578125 C 19.796875 -23.648438 21.347656 -20.101562 23.359375 -16.9375 C 25.378906 -13.769531 27.828125 -11.257812 30.703125 -9.40625 C 33.578125 -7.550781 36.84375 -6.625 40.5 -6.625 Z M 40.5 -6.625 "/></g></g></g><g fill="#9f8bff" fill-opacity="1"><g transform="translate(414.689063, 290.101649)"><g><path d="M 8.25 -13.34375 L 8.15625 -52.109375 C 8.15625 -53.765625 7.929688 -55.023438 7.484375 -55.890625 C 7.035156 -56.753906 6.503906 -57.425781 5.890625 -57.90625 C 5.285156 -58.382812 4.742188 -58.832031 4.265625 -59.25 C 3.785156 -59.664062 3.546875 -60.226562 3.546875 -60.9375 C 3.546875 -61.570312 3.769531 -62.097656 4.21875 -62.515625 C 4.664062 -62.929688 5.46875 -63.394531 6.625 -63.90625 C 7.96875 -64.539062 9.5 -65.175781 11.21875 -65.8125 C 12.945312 -66.457031 14.546875 -67.003906 16.015625 -67.453125 C 17.492188 -67.898438 18.488281 -68.125 19 -68.125 C 20.53125 -68.125 21.296875 -67.164062 21.296875 -65.25 L 21.203125 -52.109375 L 21.203125 -13.34375 C 21.203125 -11.101562 21.441406 -9.453125 21.921875 -8.390625 C 22.398438 -7.335938 22.941406 -6.570312 23.546875 -6.09375 C 24.160156 -5.613281 24.691406 -5.148438 25.140625 -4.703125 C 25.585938 -4.253906 25.8125 -3.488281 25.8125 -2.40625 C 25.8125 -1.4375 25.441406 -0.789062 24.703125 -0.46875 C 23.972656 -0.15625 22.9375 0 21.59375 0 L 7.875 0 C 6.53125 0 5.457031 -0.175781 4.65625 -0.53125 C 3.851562 -0.882812 3.453125 -1.539062 3.453125 -2.5 C 3.453125 -3.519531 3.691406 -4.253906 4.171875 -4.703125 C 4.648438 -5.148438 5.207031 -5.613281 5.84375 -6.09375 C 6.488281 -6.570312 7.050781 -7.335938 7.53125 -8.390625 C 8.007812 -9.453125 8.25 -11.101562 8.25 -13.34375 Z M 8.25 -13.34375 "/></g></g><g transform="translate(443.858826, 290.101649)"><g><path d="M 20.828125 -53.15625 C 19.671875 -53.601562 19.253906 -54.304688 19.578125 -55.265625 C 19.890625 -56.035156 20.71875 -57.140625 22.0625 -58.578125 C 23.40625 -60.015625 24.910156 -61.472656 26.578125 -62.953125 C 28.179688 -64.285156 29.703125 -65.382812 31.140625 -66.25 C 32.578125 -67.113281 33.96875 -67.289062 35.3125 -66.78125 C 36.59375 -66.332031 37.535156 -65.5 38.140625 -64.28125 C 38.742188 -63.070312 38.757812 -61.664062 38.1875 -60.0625 C 37.738281 -58.851562 36.828125 -57.71875 35.453125 -56.65625 C 34.078125 -55.601562 32.476562 -54.738281 30.65625 -54.0625 C 28.832031 -53.394531 27.023438 -52.960938 25.234375 -52.765625 C 23.441406 -52.578125 21.972656 -52.707031 20.828125 -53.15625 Z M 52.96875 -7.390625 C 54.1875 -7.390625 54.796875 -6.84375 54.796875 -5.75 C 54.796875 -4.664062 54.28125 -3.628906 53.25 -2.640625 C 52.226562 -1.648438 50.960938 -0.832031 49.453125 -0.1875 C 47.953125 0.445312 46.4375 0.765625 44.90625 0.765625 C 40.875 0.765625 38.15625 -1.597656 36.75 -6.328125 C 34.507812 -3.835938 31.867188 -2.015625 28.828125 -0.859375 C 25.796875 0.285156 22.835938 0.859375 19.953125 0.859375 C 16.441406 0.859375 13.359375 0.238281 10.703125 -1 C 8.046875 -2.25 6 -3.945312 4.5625 -6.09375 C 3.125 -8.238281 2.40625 -10.617188 2.40625 -13.234375 C 2.40625 -17.847656 4.320312 -21.640625 8.15625 -24.609375 C 11.988281 -27.585938 17.296875 -29.078125 24.078125 -29.078125 C 25.359375 -29.078125 26.554688 -29.007812 27.671875 -28.875 C 28.796875 -28.75 30.160156 -28.5625 31.765625 -28.3125 C 31.179688 -30.351562 30.503906 -32.1875 29.734375 -33.8125 C 28.972656 -35.445312 27.921875 -36.742188 26.578125 -37.703125 C 25.234375 -38.671875 23.347656 -39.15625 20.921875 -39.15625 C 18.742188 -39.15625 16.675781 -38.769531 14.71875 -38 C 12.769531 -37.226562 10.9375 -36.363281 9.21875 -35.40625 C 8.320312 -34.832031 7.519531 -34.832031 6.8125 -35.40625 C 6.101562 -35.976562 6.101562 -36.875 6.8125 -38.09375 C 7.644531 -39.4375 8.957031 -40.796875 10.75 -42.171875 C 12.539062 -43.546875 14.710938 -44.695312 17.265625 -45.625 C 19.828125 -46.550781 22.644531 -47.015625 25.71875 -47.015625 C 29.8125 -47.015625 33.039062 -46.195312 35.40625 -44.5625 C 37.769531 -42.9375 39.578125 -40.875 40.828125 -38.375 C 42.078125 -35.882812 43.050781 -33.296875 43.75 -30.609375 L 48.453125 -12.5625 C 48.960938 -10.582031 49.585938 -9.207031 50.328125 -8.4375 C 51.066406 -7.675781 51.945312 -7.328125 52.96875 -7.390625 Z M 25.140625 -5.859375 C 26.929688 -5.859375 28.640625 -6.222656 30.265625 -6.953125 C 31.898438 -7.691406 33.179688 -8.648438 34.109375 -9.828125 C 35.035156 -11.015625 35.375 -12.25 35.125 -13.53125 C 34.988281 -14.363281 34.726562 -15.382812 34.34375 -16.59375 C 33.96875 -17.8125 33.554688 -19.253906 33.109375 -20.921875 C 32.785156 -22.003906 31.835938 -22.800781 30.265625 -23.3125 C 28.703125 -23.820312 27.15625 -24.078125 25.625 -24.078125 C 22.226562 -24.078125 19.570312 -23.273438 17.65625 -21.671875 C 15.738281 -20.078125 14.78125 -17.972656 14.78125 -15.359375 C 14.84375 -12.597656 15.800781 -10.320312 17.65625 -8.53125 C 19.507812 -6.75 22.003906 -5.859375 25.140625 -5.859375 Z M 25.140625 -5.859375 "/></g></g><g transform="translate(499.031897, 290.101649)"><g><path d="M 8.25 13.046875 C 7.03125 13.046875 6.421875 12.566406 6.421875 11.609375 C 6.421875 11.035156 6.773438 10.394531 7.484375 9.6875 C 8.191406 8.988281 8.878906 8.15625 9.546875 7.1875 C 10.222656 6.226562 10.5625 5.144531 10.5625 3.9375 C 10.5625 3.039062 10.285156 2.269531 9.734375 1.625 C 9.191406 0.988281 8.550781 0.351562 7.8125 -0.28125 C 7.082031 -0.925781 6.441406 -1.695312 5.890625 -2.59375 C 5.347656 -3.488281 5.078125 -4.640625 5.078125 -6.046875 C 5.078125 -8.347656 5.8125 -10.1875 7.28125 -11.5625 C 8.757812 -12.9375 10.363281 -13.625 12.09375 -13.625 C 14.269531 -13.625 16.109375 -12.90625 17.609375 -11.46875 C 19.109375 -10.03125 19.859375 -7.710938 19.859375 -4.515625 C 19.859375 -1.117188 19.1875 1.90625 17.84375 4.5625 C 16.5 7.21875 14.914062 9.296875 13.09375 10.796875 C 11.269531 12.296875 9.65625 13.046875 8.25 13.046875 Z M 8.25 13.046875 "/></g></g><g transform="translate(523.499954, 290.101649)"><g/></g><g transform="translate(542.690587, 290.101649)"><g><path d="M 75.796875 -54.59375 L 77.140625 -14.109375 C 77.273438 -11.929688 77.660156 -10.347656 78.296875 -9.359375 C 78.929688 -8.367188 79.664062 -7.613281 80.5 -7.09375 C 81.332031 -6.582031 82.050781 -6.054688 82.65625 -5.515625 C 83.269531 -4.972656 83.578125 -4.0625 83.578125 -2.78125 C 83.578125 -1.757812 83.191406 -1.039062 82.421875 -0.625 C 81.648438 -0.207031 80.335938 0 78.484375 0 L 63.71875 0 C 61.863281 0 60.519531 -0.207031 59.6875 -0.625 C 58.851562 -1.039062 58.4375 -1.757812 58.4375 -2.78125 C 58.4375 -3.9375 58.707031 -4.800781 59.25 -5.375 C 59.789062 -5.945312 60.429688 -6.503906 61.171875 -7.046875 C 61.910156 -7.597656 62.550781 -8.382812 63.09375 -9.40625 C 63.632812 -10.425781 63.90625 -11.992188 63.90625 -14.109375 L 63.140625 -50.375 L 42.890625 -6.71875 C 42.503906 -5.882812 42.070312 -5.273438 41.59375 -4.890625 C 41.113281 -4.503906 40.394531 -4.1875 39.4375 -3.9375 C 37.457031 -3.550781 36.207031 -4.09375 35.6875 -5.5625 L 17.078125 -49.796875 L 15.828125 -12 C 15.765625 -10.394531 15.972656 -9.128906 16.453125 -8.203125 C 16.929688 -7.273438 17.488281 -6.554688 18.125 -6.046875 C 18.769531 -5.535156 19.347656 -5.019531 19.859375 -4.5 C 20.367188 -3.988281 20.625 -3.320312 20.625 -2.5 C 20.625 -1.46875 20.253906 -0.804688 19.515625 -0.515625 C 18.785156 -0.234375 17.6875 -0.09375 16.21875 -0.09375 L 7.671875 -0.09375 C 6.078125 -0.09375 4.925781 -0.269531 4.21875 -0.625 C 3.519531 -0.976562 3.171875 -1.632812 3.171875 -2.59375 C 3.171875 -3.351562 3.441406 -3.988281 3.984375 -4.5 C 4.523438 -5.019531 5.160156 -5.535156 5.890625 -6.046875 C 6.628906 -6.554688 7.300781 -7.273438 7.90625 -8.203125 C 8.519531 -9.128906 8.859375 -10.394531 8.921875 -12 L 10.75 -54.59375 C 10.8125 -56.320312 10.585938 -57.632812 10.078125 -58.53125 C 9.566406 -59.425781 8.941406 -60.128906 8.203125 -60.640625 C 7.460938 -61.148438 6.804688 -61.675781 6.234375 -62.21875 C 5.660156 -62.769531 5.375 -63.523438 5.375 -64.484375 C 5.375 -65.503906 5.738281 -66.207031 6.46875 -66.59375 C 7.207031 -66.976562 8.378906 -67.171875 9.984375 -67.171875 L 21.109375 -67.171875 C 22.898438 -67.171875 24.113281 -66.367188 24.75 -64.765625 L 42.796875 -22.453125 L 62.375 -64.671875 C 63.132812 -66.335938 64.347656 -67.171875 66.015625 -67.171875 L 76.578125 -67.171875 C 78.234375 -67.171875 79.410156 -66.976562 80.109375 -66.59375 C 80.816406 -66.207031 81.171875 -65.503906 81.171875 -64.484375 C 81.171875 -63.523438 80.882812 -62.785156 80.3125 -62.265625 C 79.738281 -61.753906 79.082031 -61.242188 78.34375 -60.734375 C 77.613281 -60.222656 76.988281 -59.519531 76.46875 -58.625 C 75.957031 -57.726562 75.734375 -56.382812 75.796875 -54.59375 Z M 75.796875 -54.59375 "/></g></g></g><g fill="#9f8bff" fill-opacity="1"><g transform="translate(629.240374, 290.101649)"><g><path d="M 25.71875 0.953125 C 21.488281 0.953125 17.660156 0.0625 14.234375 -1.71875 C 10.816406 -3.507812 8.117188 -6.066406 6.140625 -9.390625 C 4.160156 -12.722656 3.171875 -16.660156 3.171875 -21.203125 C 3.171875 -26.003906 4.320312 -30.351562 6.625 -34.25 C 8.925781 -38.15625 12.070312 -41.257812 16.0625 -43.5625 C 20.0625 -45.863281 24.59375 -47.015625 29.65625 -47.015625 C 34.0625 -47.015625 37.941406 -46.019531 41.296875 -44.03125 C 44.660156 -42.050781 47.285156 -39.363281 49.171875 -35.96875 C 51.054688 -32.582031 52 -28.75 52 -24.46875 C 52 -19.664062 50.863281 -15.34375 48.59375 -11.5 C 46.320312 -7.664062 43.21875 -4.628906 39.28125 -2.390625 C 35.351562 -0.160156 30.832031 0.953125 25.71875 0.953125 Z M 29.84375 -5.375 C 33.101562 -5.375 35.484375 -6.601562 36.984375 -9.0625 C 38.492188 -11.53125 39.25 -14.425781 39.25 -17.75 C 39.25 -20.5625 38.910156 -23.3125 38.234375 -26 C 37.566406 -28.6875 36.609375 -31.148438 35.359375 -33.390625 C 34.109375 -35.628906 32.632812 -37.40625 30.9375 -38.71875 C 29.25 -40.03125 27.378906 -40.6875 25.328125 -40.6875 C 23.023438 -40.6875 21.171875 -40.046875 19.765625 -38.765625 C 18.359375 -37.484375 17.347656 -35.832031 16.734375 -33.8125 C 16.128906 -31.800781 15.828125 -29.644531 15.828125 -27.34375 C 15.828125 -23.632812 16.414062 -20.097656 17.59375 -16.734375 C 18.78125 -13.378906 20.429688 -10.644531 22.546875 -8.53125 C 24.660156 -6.425781 27.09375 -5.375 29.84375 -5.375 Z M 29.84375 -5.375 "/></g></g></g><g fill="#efecff" fill-opacity="1"><g transform="translate(438.378329, 357.038998)"><g><path d="M 10.34375 -10.421875 C 11.820312 -10.148438 12.984375 -9.585938 13.828125 -8.734375 C 14.671875 -7.890625 15.09375 -6.851562 15.09375 -5.625 C 15.09375 -3.769531 14.414062 -2.367188 13.0625 -1.421875 C 11.71875 -0.472656 9.835938 0 7.421875 0 L 2.21875 0 C 1.757812 0 1.425781 -0.0351562 1.21875 -0.109375 C 1.007812 -0.179688 0.90625 -0.34375 0.90625 -0.59375 C 0.90625 -0.882812 0.984375 -1.078125 1.140625 -1.171875 C 1.296875 -1.273438 1.476562 -1.390625 1.6875 -1.515625 C 1.894531 -1.640625 2.078125 -1.867188 2.234375 -2.203125 C 2.390625 -2.535156 2.46875 -3.078125 2.46875 -3.828125 L 2.46875 -13.671875 C 2.46875 -14.421875 2.390625 -14.960938 2.234375 -15.296875 C 2.078125 -15.628906 1.894531 -15.859375 1.6875 -15.984375 C 1.476562 -16.109375 1.296875 -16.21875 1.140625 -16.3125 C 0.984375 -16.414062 0.90625 -16.609375 0.90625 -16.890625 C 0.90625 -17.140625 1.007812 -17.300781 1.21875 -17.375 C 1.425781 -17.445312 1.757812 -17.484375 2.21875 -17.484375 L 6.796875 -17.484375 C 8.691406 -17.484375 10.195312 -17.175781 11.3125 -16.5625 C 12.425781 -15.945312 12.992188 -14.984375 13.015625 -13.671875 C 13.015625 -12.921875 12.789062 -12.253906 12.34375 -11.671875 C 11.90625 -11.097656 11.238281 -10.679688 10.34375 -10.421875 Z M 5.375 -15.234375 L 5.375 -11.546875 C 5.375 -11.273438 5.519531 -11.117188 5.8125 -11.078125 C 6.113281 -11.035156 6.425781 -11.015625 6.75 -11.015625 C 7.925781 -11.015625 8.769531 -11.203125 9.28125 -11.578125 C 9.800781 -11.953125 10.0625 -12.523438 10.0625 -13.296875 C 10.0625 -14.128906 9.753906 -14.8125 9.140625 -15.34375 C 8.523438 -15.875 7.703125 -16.140625 6.671875 -16.140625 C 6.253906 -16.140625 5.929688 -16.082031 5.703125 -15.96875 C 5.484375 -15.863281 5.375 -15.617188 5.375 -15.234375 Z M 7.375 -1.34375 C 8.882812 -1.34375 10.007812 -1.632812 10.75 -2.21875 C 11.5 -2.800781 11.875 -3.753906 11.875 -5.078125 C 11.875 -6.410156 11.414062 -7.492188 10.5 -8.328125 C 9.59375 -9.171875 8.300781 -9.59375 6.625 -9.59375 C 6.070312 -9.59375 5.722656 -9.519531 5.578125 -9.375 C 5.441406 -9.238281 5.375 -9.019531 5.375 -8.71875 L 5.375 -3.09375 C 5.375 -2.476562 5.492188 -2.03125 5.734375 -1.75 C 5.972656 -1.476562 6.519531 -1.34375 7.375 -1.34375 Z M 7.375 -1.34375 "/></g></g></g><g fill="#efecff" fill-opacity="1"><g transform="translate(455.617419, 357.038998)"><g><path d="M 13.515625 -17.484375 L 15.734375 -17.484375 C 16.085938 -17.484375 16.375 -17.445312 16.59375 -17.375 C 16.8125 -17.300781 16.921875 -17.148438 16.921875 -16.921875 C 16.921875 -16.703125 16.84375 -16.535156 16.6875 -16.421875 C 16.539062 -16.316406 16.34375 -16.210938 16.09375 -16.109375 C 15.84375 -16.015625 15.570312 -15.859375 15.28125 -15.640625 C 15 -15.421875 14.71875 -15.097656 14.4375 -14.671875 L 10.046875 -7.75 L 10.046875 -3.890625 C 10.046875 -3.160156 10.117188 -2.625 10.265625 -2.28125 C 10.421875 -1.945312 10.601562 -1.707031 10.8125 -1.5625 C 11.019531 -1.414062 11.195312 -1.285156 11.34375 -1.171875 C 11.488281 -1.054688 11.5625 -0.863281 11.5625 -0.59375 C 11.5625 -0.382812 11.460938 -0.234375 11.265625 -0.140625 C 11.066406 -0.046875 10.726562 0 10.25 0 L 6.875 0 C 6.007812 0 5.578125 -0.195312 5.578125 -0.59375 C 5.578125 -0.863281 5.65625 -1.054688 5.8125 -1.171875 C 5.96875 -1.285156 6.144531 -1.414062 6.34375 -1.5625 C 6.539062 -1.707031 6.71875 -1.945312 6.875 -2.28125 C 7.039062 -2.625 7.125 -3.160156 7.125 -3.890625 L 7.125 -7.75 L 2.453125 -14.5625 C 2.148438 -15.007812 1.859375 -15.347656 1.578125 -15.578125 C 1.296875 -15.804688 1.050781 -15.976562 0.84375 -16.09375 C 0.632812 -16.207031 0.46875 -16.316406 0.34375 -16.421875 C 0.21875 -16.535156 0.15625 -16.691406 0.15625 -16.890625 C 0.15625 -17.140625 0.253906 -17.300781 0.453125 -17.375 C 0.648438 -17.445312 0.945312 -17.484375 1.34375 -17.484375 L 5.390625 -17.484375 C 5.722656 -17.484375 5.984375 -17.445312 6.171875 -17.375 C 6.367188 -17.300781 6.46875 -17.148438 6.46875 -16.921875 C 6.46875 -16.703125 6.394531 -16.53125 6.25 -16.40625 C 6.113281 -16.289062 5.972656 -16.175781 5.828125 -16.0625 C 5.691406 -15.945312 5.625 -15.769531 5.625 -15.53125 C 5.625 -15.300781 5.765625 -14.972656 6.046875 -14.546875 L 9.46875 -9.375 L 12.71875 -14.671875 C 12.976562 -15.097656 13.117188 -15.421875 13.140625 -15.640625 C 13.160156 -15.859375 13.113281 -16.019531 13 -16.125 C 12.894531 -16.238281 12.78125 -16.34375 12.65625 -16.4375 C 12.539062 -16.539062 12.484375 -16.691406 12.484375 -16.890625 C 12.484375 -17.117188 12.582031 -17.273438 12.78125 -17.359375 C 12.988281 -17.441406 13.234375 -17.484375 13.515625 -17.484375 Z M 13.515625 -17.484375 "/></g></g></g><g fill="#efecff" fill-opacity="1"><g transform="translate(474.13069, 357.038998)"><g/></g></g><g fill="#efecff" fill-opacity="1"><g transform="translate(480.626731, 357.038998)"><g><path d="M 17.1875 -13.59375 L 17.1875 -3.890625 C 17.1875 -3.160156 17.257812 -2.625 17.40625 -2.28125 C 17.5625 -1.945312 17.738281 -1.707031 17.9375 -1.5625 C 18.132812 -1.414062 18.304688 -1.285156 18.453125 -1.171875 C 18.609375 -1.054688 18.6875 -0.863281 18.6875 -0.59375 C 18.6875 -0.382812 18.585938 -0.234375 18.390625 -0.140625 C 18.203125 -0.046875 17.867188 0 17.390625 0 L 14.015625 0 C 13.148438 0 12.71875 -0.195312 12.71875 -0.59375 C 12.71875 -0.863281 12.796875 -1.054688 12.953125 -1.171875 C 13.109375 -1.285156 13.285156 -1.414062 13.484375 -1.5625 C 13.691406 -1.707031 13.875 -1.945312 14.03125 -2.28125 C 14.1875 -2.625 14.265625 -3.160156 14.265625 -3.890625 L 14.265625 -7.46875 C 14.265625 -7.75 14.238281 -7.960938 14.1875 -8.109375 C 14.132812 -8.265625 13.976562 -8.375 13.71875 -8.4375 C 13.46875 -8.507812 13.039062 -8.550781 12.4375 -8.5625 C 11.84375 -8.582031 11.003906 -8.59375 9.921875 -8.59375 C 8.785156 -8.59375 7.90625 -8.582031 7.28125 -8.5625 C 6.65625 -8.550781 6.207031 -8.507812 5.9375 -8.4375 C 5.675781 -8.375 5.515625 -8.265625 5.453125 -8.109375 C 5.398438 -7.960938 5.375 -7.75 5.375 -7.46875 L 5.375 -3.890625 C 5.375 -3.160156 5.445312 -2.625 5.59375 -2.28125 C 5.75 -1.945312 5.929688 -1.707031 6.140625 -1.5625 C 6.347656 -1.414062 6.523438 -1.285156 6.671875 -1.171875 C 6.816406 -1.054688 6.890625 -0.863281 6.890625 -0.59375 C 6.890625 -0.382812 6.789062 -0.234375 6.59375 -0.140625 C 6.394531 -0.046875 6.054688 0 5.578125 0 L 2.21875 0 C 1.34375 0 0.90625 -0.195312 0.90625 -0.59375 C 0.90625 -0.863281 0.984375 -1.054688 1.140625 -1.171875 C 1.296875 -1.285156 1.476562 -1.414062 1.6875 -1.5625 C 1.894531 -1.707031 2.078125 -1.945312 2.234375 -2.28125 C 2.390625 -2.625 2.46875 -3.160156 2.46875 -3.890625 L 2.46875 -13.59375 C 2.46875 -14.320312 2.394531 -14.859375 2.25 -15.203125 C 2.101562 -15.546875 1.925781 -15.785156 1.71875 -15.921875 C 1.507812 -16.066406 1.328125 -16.195312 1.171875 -16.3125 C 1.023438 -16.425781 0.953125 -16.617188 0.953125 -16.890625 C 0.953125 -17.117188 1.050781 -17.273438 1.25 -17.359375 C 1.445312 -17.441406 1.789062 -17.484375 2.28125 -17.484375 L 5.625 -17.484375 C 6.507812 -17.484375 6.953125 -17.285156 6.953125 -16.890625 C 6.953125 -16.617188 6.867188 -16.425781 6.703125 -16.3125 C 6.546875 -16.195312 6.363281 -16.066406 6.15625 -15.921875 C 5.945312 -15.785156 5.765625 -15.546875 5.609375 -15.203125 C 5.453125 -14.859375 5.375 -14.320312 5.375 -13.59375 L 5.375 -11.09375 C 5.375 -10.8125 5.398438 -10.59375 5.453125 -10.4375 C 5.515625 -10.289062 5.675781 -10.179688 5.9375 -10.109375 C 6.207031 -10.046875 6.65625 -10.003906 7.28125 -9.984375 C 7.90625 -9.972656 8.789062 -9.96875 9.9375 -9.96875 C 11.019531 -9.96875 11.859375 -9.972656 12.453125 -9.984375 C 13.046875 -10.003906 13.46875 -10.046875 13.71875 -10.109375 C 13.976562 -10.179688 14.132812 -10.289062 14.1875 -10.4375 C 14.238281 -10.59375 14.265625 -10.8125 14.265625 -11.09375 L 14.265625 -13.59375 C 14.265625 -14.320312 14.1875 -14.859375 14.03125 -15.203125 C 13.882812 -15.546875 13.710938 -15.785156 13.515625 -15.921875 C 13.316406 -16.066406 13.140625 -16.195312 12.984375 -16.3125 C 12.835938 -16.425781 12.765625 -16.617188 12.765625 -16.890625 C 12.765625 -17.117188 12.863281 -17.273438 13.0625 -17.359375 C 13.257812 -17.441406 13.59375 -17.484375 14.0625 -17.484375 L 17.4375 -17.484375 C 18.300781 -17.484375 18.734375 -17.285156 18.734375 -16.890625 C 18.734375 -16.617188 18.65625 -16.425781 18.5 -16.3125 C 18.34375 -16.195312 18.160156 -16.066406 17.953125 -15.921875 C 17.753906 -15.785156 17.578125 -15.546875 17.421875 -15.203125 C 17.265625 -14.859375 17.1875 -14.320312 17.1875 -13.59375 Z M 17.1875 -13.59375 "/></g></g></g><g fill="#efecff" fill-opacity="1"><g transform="translate(501.763299, 357.038998)"><g><path d="M 14.046875 -4.828125 C 14.253906 -4.773438 14.382812 -4.664062 14.4375 -4.5 C 14.488281 -4.332031 14.503906 -4.109375 14.484375 -3.828125 C 14.453125 -3.171875 14.398438 -2.617188 14.328125 -2.171875 C 14.265625 -1.722656 14.1875 -1.316406 14.09375 -0.953125 C 14.007812 -0.628906 13.84375 -0.390625 13.59375 -0.234375 C 13.34375 -0.078125 12.828125 0 12.046875 0 L 2.21875 0 C 1.757812 0 1.425781 -0.0351562 1.21875 -0.109375 C 1.007812 -0.179688 0.90625 -0.34375 0.90625 -0.59375 C 0.90625 -0.882812 0.984375 -1.078125 1.140625 -1.171875 C 1.296875 -1.273438 1.476562 -1.390625 1.6875 -1.515625 C 1.894531 -1.640625 2.078125 -1.867188 2.234375 -2.203125 C 2.390625 -2.535156 2.46875 -3.078125 2.46875 -3.828125 L 2.46875 -13.671875 C 2.46875 -14.421875 2.390625 -14.960938 2.234375 -15.296875 C 2.078125 -15.628906 1.894531 -15.859375 1.6875 -15.984375 C 1.476562 -16.109375 1.296875 -16.21875 1.140625 -16.3125 C 0.984375 -16.414062 0.90625 -16.609375 0.90625 -16.890625 C 0.90625 -17.140625 1.007812 -17.300781 1.21875 -17.375 C 1.425781 -17.445312 1.757812 -17.484375 2.21875 -17.484375 L 11.6875 -17.515625 C 12.425781 -17.515625 12.90625 -17.457031 13.125 -17.34375 C 13.351562 -17.238281 13.523438 -17.019531 13.640625 -16.6875 C 13.773438 -16.351562 13.894531 -15.96875 14 -15.53125 C 14.113281 -15.101562 14.210938 -14.613281 14.296875 -14.0625 C 14.335938 -13.78125 14.34375 -13.546875 14.3125 -13.359375 C 14.28125 -13.179688 14.164062 -13.054688 13.96875 -12.984375 C 13.75 -12.921875 13.554688 -12.957031 13.390625 -13.09375 C 13.222656 -13.226562 13.046875 -13.453125 12.859375 -13.765625 C 12.398438 -14.546875 11.882812 -15.132812 11.3125 -15.53125 C 10.75 -15.9375 10.039062 -16.140625 9.1875 -16.140625 L 7.921875 -16.140625 C 7.191406 -16.140625 6.640625 -16.097656 6.265625 -16.015625 C 5.898438 -15.929688 5.660156 -15.804688 5.546875 -15.640625 C 5.429688 -15.472656 5.375 -15.253906 5.375 -14.984375 L 5.375 -12.21875 C 5.375 -11.65625 5.53125 -11.3125 5.84375 -11.1875 C 6.164062 -11.0625 6.597656 -11 7.140625 -11 L 7.625 -11 C 8.207031 -11 8.644531 -11.039062 8.9375 -11.125 C 9.238281 -11.207031 9.460938 -11.300781 9.609375 -11.40625 C 9.765625 -11.507812 9.890625 -11.601562 9.984375 -11.6875 C 10.085938 -11.769531 10.238281 -11.8125 10.4375 -11.8125 C 10.789062 -11.8125 11.023438 -11.554688 11.140625 -11.046875 L 11.6875 -8.5625 C 11.789062 -8.101562 11.816406 -7.796875 11.765625 -7.640625 C 11.710938 -7.492188 11.582031 -7.390625 11.375 -7.328125 C 11.125 -7.253906 10.898438 -7.328125 10.703125 -7.546875 C 10.515625 -7.773438 10.300781 -8.050781 10.0625 -8.375 C 9.832031 -8.707031 9.53125 -9.003906 9.15625 -9.265625 C 8.78125 -9.535156 8.269531 -9.671875 7.625 -9.671875 L 7.140625 -9.671875 C 6.597656 -9.671875 6.164062 -9.609375 5.84375 -9.484375 C 5.53125 -9.359375 5.375 -9.007812 5.375 -8.4375 L 5.375 -2.546875 C 5.375 -2.265625 5.4375 -2.035156 5.5625 -1.859375 C 5.6875 -1.679688 5.9375 -1.550781 6.3125 -1.46875 C 6.6875 -1.382812 7.25 -1.34375 8 -1.34375 L 9.796875 -1.375 C 10.441406 -1.375 10.953125 -1.460938 11.328125 -1.640625 C 11.703125 -1.828125 12.003906 -2.101562 12.234375 -2.46875 C 12.472656 -2.832031 12.71875 -3.289062 12.96875 -3.84375 C 13.164062 -4.28125 13.347656 -4.5625 13.515625 -4.6875 C 13.679688 -4.8125 13.859375 -4.859375 14.046875 -4.828125 Z M 14.046875 -4.828125 "/></g></g></g><g fill="#efecff" fill-opacity="1"><g transform="translate(518.652624, 357.038998)"><g><path d="M 13.046875 -4.828125 C 13.253906 -4.773438 13.382812 -4.664062 13.4375 -4.5 C 13.488281 -4.332031 13.503906 -4.109375 13.484375 -3.828125 C 13.453125 -3.171875 13.398438 -2.617188 13.328125 -2.171875 C 13.265625 -1.722656 13.1875 -1.316406 13.09375 -0.953125 C 13.007812 -0.628906 12.84375 -0.390625 12.59375 -0.234375 C 12.34375 -0.078125 11.828125 0 11.046875 0 L 2.21875 0 C 1.757812 0 1.425781 -0.0351562 1.21875 -0.109375 C 1.007812 -0.179688 0.90625 -0.34375 0.90625 -0.59375 C 0.90625 -0.882812 0.984375 -1.078125 1.140625 -1.171875 C 1.296875 -1.273438 1.476562 -1.390625 1.6875 -1.515625 C 1.894531 -1.640625 2.078125 -1.867188 2.234375 -2.203125 C 2.390625 -2.535156 2.46875 -3.078125 2.46875 -3.828125 L 2.46875 -13.59375 C 2.46875 -14.320312 2.394531 -14.859375 2.25 -15.203125 C 2.101562 -15.546875 1.925781 -15.785156 1.71875 -15.921875 C 1.507812 -16.066406 1.328125 -16.195312 1.171875 -16.3125 C 1.023438 -16.425781 0.953125 -16.617188 0.953125 -16.890625 C 0.953125 -17.117188 1.050781 -17.273438 1.25 -17.359375 C 1.445312 -17.441406 1.789062 -17.484375 2.28125 -17.484375 L 5.625 -17.484375 C 6.507812 -17.484375 6.953125 -17.285156 6.953125 -16.890625 C 6.953125 -16.617188 6.867188 -16.425781 6.703125 -16.3125 C 6.546875 -16.195312 6.363281 -16.066406 6.15625 -15.921875 C 5.945312 -15.785156 5.765625 -15.546875 5.609375 -15.203125 C 5.453125 -14.859375 5.375 -14.320312 5.375 -13.59375 L 5.375 -2.546875 C 5.375 -2.128906 5.5 -1.820312 5.75 -1.625 C 6.007812 -1.4375 6.578125 -1.34375 7.453125 -1.34375 L 8.796875 -1.375 C 9.441406 -1.375 9.953125 -1.460938 10.328125 -1.640625 C 10.703125 -1.828125 11.003906 -2.101562 11.234375 -2.46875 C 11.472656 -2.832031 11.71875 -3.289062 11.96875 -3.84375 C 12.164062 -4.28125 12.347656 -4.5625 12.515625 -4.6875 C 12.679688 -4.8125 12.859375 -4.859375 13.046875 -4.828125 Z M 13.046875 -4.828125 "/></g></g></g><g fill="#efecff" fill-opacity="1"><g transform="translate(534.217803, 357.038998)"><g><path d="M 13.046875 -4.828125 C 13.253906 -4.773438 13.382812 -4.664062 13.4375 -4.5 C 13.488281 -4.332031 13.503906 -4.109375 13.484375 -3.828125 C 13.453125 -3.171875 13.398438 -2.617188 13.328125 -2.171875 C 13.265625 -1.722656 13.1875 -1.316406 13.09375 -0.953125 C 13.007812 -0.628906 12.84375 -0.390625 12.59375 -0.234375 C 12.34375 -0.078125 11.828125 0 11.046875 0 L 2.21875 0 C 1.757812 0 1.425781 -0.0351562 1.21875 -0.109375 C 1.007812 -0.179688 0.90625 -0.34375 0.90625 -0.59375 C 0.90625 -0.882812 0.984375 -1.078125 1.140625 -1.171875 C 1.296875 -1.273438 1.476562 -1.390625 1.6875 -1.515625 C 1.894531 -1.640625 2.078125 -1.867188 2.234375 -2.203125 C 2.390625 -2.535156 2.46875 -3.078125 2.46875 -3.828125 L 2.46875 -13.59375 C 2.46875 -14.320312 2.394531 -14.859375 2.25 -15.203125 C 2.101562 -15.546875 1.925781 -15.785156 1.71875 -15.921875 C 1.507812 -16.066406 1.328125 -16.195312 1.171875 -16.3125 C 1.023438 -16.425781 0.953125 -16.617188 0.953125 -16.890625 C 0.953125 -17.117188 1.050781 -17.273438 1.25 -17.359375 C 1.445312 -17.441406 1.789062 -17.484375 2.28125 -17.484375 L 5.625 -17.484375 C 6.507812 -17.484375 6.953125 -17.285156 6.953125 -16.890625 C 6.953125 -16.617188 6.867188 -16.425781 6.703125 -16.3125 C 6.546875 -16.195312 6.363281 -16.066406 6.15625 -15.921875 C 5.945312 -15.785156 5.765625 -15.546875 5.609375 -15.203125 C 5.453125 -14.859375 5.375 -14.320312 5.375 -13.59375 L 5.375 -2.546875 C 5.375 -2.128906 5.5 -1.820312 5.75 -1.625 C 6.007812 -1.4375 6.578125 -1.34375 7.453125 -1.34375 L 8.796875 -1.375 C 9.441406 -1.375 9.953125 -1.460938 10.328125 -1.640625 C 10.703125 -1.828125 11.003906 -2.101562 11.234375 -2.46875 C 11.472656 -2.832031 11.71875 -3.289062 11.96875 -3.84375 C 12.164062 -4.28125 12.347656 -4.5625 12.515625 -4.6875 C 12.679688 -4.8125 12.859375 -4.859375 13.046875 -4.828125 Z M 13.046875 -4.828125 "/></g></g></g><g fill="#efecff" fill-opacity="1"><g transform="translate(549.782977, 357.038998)"><g><path d="M 14.046875 -4.828125 C 14.253906 -4.773438 14.382812 -4.664062 14.4375 -4.5 C 14.488281 -4.332031 14.503906 -4.109375 14.484375 -3.828125 C 14.453125 -3.171875 14.398438 -2.617188 14.328125 -2.171875 C 14.265625 -1.722656 14.1875 -1.316406 14.09375 -0.953125 C 14.007812 -0.628906 13.84375 -0.390625 13.59375 -0.234375 C 13.34375 -0.078125 12.828125 0 12.046875 0 L 2.21875 0 C 1.757812 0 1.425781 -0.0351562 1.21875 -0.109375 C 1.007812 -0.179688 0.90625 -0.34375 0.90625 -0.59375 C 0.90625 -0.882812 0.984375 -1.078125 1.140625 -1.171875 C 1.296875 -1.273438 1.476562 -1.390625 1.6875 -1.515625 C 1.894531 -1.640625 2.078125 -1.867188 2.234375 -2.203125 C 2.390625 -2.535156 2.46875 -3.078125 2.46875 -3.828125 L 2.46875 -13.671875 C 2.46875 -14.421875 2.390625 -14.960938 2.234375 -15.296875 C 2.078125 -15.628906 1.894531 -15.859375 1.6875 -15.984375 C 1.476562 -16.109375 1.296875 -16.21875 1.140625 -16.3125 C 0.984375 -16.414062 0.90625 -16.609375 0.90625 -16.890625 C 0.90625 -17.140625 1.007812 -17.300781 1.21875 -17.375 C 1.425781 -17.445312 1.757812 -17.484375 2.21875 -17.484375 L 11.6875 -17.515625 C 12.425781 -17.515625 12.90625 -17.457031 13.125 -17.34375 C 13.351562 -17.238281 13.523438 -17.019531 13.640625 -16.6875 C 13.773438 -16.351562 13.894531 -15.96875 14 -15.53125 C 14.113281 -15.101562 14.210938 -14.613281 14.296875 -14.0625 C 14.335938 -13.78125 14.34375 -13.546875 14.3125 -13.359375 C 14.28125 -13.179688 14.164062 -13.054688 13.96875 -12.984375 C 13.75 -12.921875 13.554688 -12.957031 13.390625 -13.09375 C 13.222656 -13.226562 13.046875 -13.453125 12.859375 -13.765625 C 12.398438 -14.546875 11.882812 -15.132812 11.3125 -15.53125 C 10.75 -15.9375 10.039062 -16.140625 9.1875 -16.140625 L 7.921875 -16.140625 C 7.191406 -16.140625 6.640625 -16.097656 6.265625 -16.015625 C 5.898438 -15.929688 5.660156 -15.804688 5.546875 -15.640625 C 5.429688 -15.472656 5.375 -15.253906 5.375 -14.984375 L 5.375 -12.21875 C 5.375 -11.65625 5.53125 -11.3125 5.84375 -11.1875 C 6.164062 -11.0625 6.597656 -11 7.140625 -11 L 7.625 -11 C 8.207031 -11 8.644531 -11.039062 8.9375 -11.125 C 9.238281 -11.207031 9.460938 -11.300781 9.609375 -11.40625 C 9.765625 -11.507812 9.890625 -11.601562 9.984375 -11.6875 C 10.085938 -11.769531 10.238281 -11.8125 10.4375 -11.8125 C 10.789062 -11.8125 11.023438 -11.554688 11.140625 -11.046875 L 11.6875 -8.5625 C 11.789062 -8.101562 11.816406 -7.796875 11.765625 -7.640625 C 11.710938 -7.492188 11.582031 -7.390625 11.375 -7.328125 C 11.125 -7.253906 10.898438 -7.328125 10.703125 -7.546875 C 10.515625 -7.773438 10.300781 -8.050781 10.0625 -8.375 C 9.832031 -8.707031 9.53125 -9.003906 9.15625 -9.265625 C 8.78125 -9.535156 8.269531 -9.671875 7.625 -9.671875 L 7.140625 -9.671875 C 6.597656 -9.671875 6.164062 -9.609375 5.84375 -9.484375 C 5.53125 -9.359375 5.375 -9.007812 5.375 -8.4375 L 5.375 -2.546875 C 5.375 -2.265625 5.4375 -2.035156 5.5625 -1.859375 C 5.6875 -1.679688 5.9375 -1.550781 6.3125 -1.46875 C 6.6875 -1.382812 7.25 -1.34375 8 -1.34375 L 9.796875 -1.375 C 10.441406 -1.375 10.953125 -1.460938 11.328125 -1.640625 C 11.703125 -1.828125 12.003906 -2.101562 12.234375 -2.46875 C 12.472656 -2.832031 12.71875 -3.289062 12.96875 -3.84375 C 13.164062 -4.28125 13.347656 -4.5625 13.515625 -4.6875 C 13.679688 -4.8125 13.859375 -4.859375 14.046875 -4.828125 Z M 14.046875 -4.828125 "/></g></g></g><g fill="#efecff" fill-opacity="1"><g transform="translate(566.672301, 357.038998)"><g><path d="M 15.0625 -17.484375 L 17.015625 -17.484375 C 17.398438 -17.484375 17.6875 -17.441406 17.875 -17.359375 C 18.0625 -17.273438 18.15625 -17.117188 18.15625 -16.890625 C 18.15625 -16.691406 18.085938 -16.53125 17.953125 -16.40625 C 17.828125 -16.289062 17.671875 -16.164062 17.484375 -16.03125 C 17.304688 -15.90625 17.148438 -15.71875 17.015625 -15.46875 C 16.878906 -15.226562 16.8125 -14.878906 16.8125 -14.421875 L 16.8125 -0.90625 C 16.8125 -0.570312 16.75 -0.335938 16.625 -0.203125 C 16.5 -0.0664062 16.304688 0 16.046875 0 C 15.804688 0 15.625 -0.0664062 15.5 -0.203125 C 15.375 -0.347656 15.3125 -0.503906 15.3125 -0.671875 C 15.3125 -1.222656 15.078125 -1.757812 14.609375 -2.28125 L 3.875 -13.609375 L 3.890625 -3.078125 C 3.890625 -2.609375 3.960938 -2.253906 4.109375 -2.015625 C 4.253906 -1.773438 4.414062 -1.585938 4.59375 -1.453125 C 4.78125 -1.316406 4.9375 -1.191406 5.0625 -1.078125 C 5.195312 -0.972656 5.265625 -0.8125 5.265625 -0.59375 C 5.265625 -0.363281 5.171875 -0.207031 4.984375 -0.125 C 4.796875 -0.0390625 4.507812 0 4.125 0 L 2.171875 0 C 1.421875 0 1.046875 -0.195312 1.046875 -0.59375 C 1.046875 -0.800781 1.113281 -0.960938 1.25 -1.078125 C 1.382812 -1.191406 1.535156 -1.316406 1.703125 -1.453125 C 1.878906 -1.585938 2.035156 -1.773438 2.171875 -2.015625 C 2.304688 -2.253906 2.375 -2.609375 2.375 -3.078125 L 2.375 -13.671875 C 2.375 -14.421875 2.296875 -14.960938 2.140625 -15.296875 C 1.984375 -15.628906 1.800781 -15.859375 1.59375 -15.984375 C 1.394531 -16.109375 1.21875 -16.21875 1.0625 -16.3125 C 0.90625 -16.414062 0.828125 -16.609375 0.828125 -16.890625 C 0.828125 -17.140625 0.929688 -17.300781 1.140625 -17.375 C 1.347656 -17.445312 1.675781 -17.484375 2.125 -17.484375 L 3.703125 -17.484375 C 3.910156 -17.484375 4.085938 -17.441406 4.234375 -17.359375 C 4.378906 -17.273438 4.535156 -17.148438 4.703125 -16.984375 L 15.3125 -5.671875 L 15.296875 -14.421875 C 15.296875 -14.878906 15.226562 -15.226562 15.09375 -15.46875 C 14.957031 -15.71875 14.796875 -15.90625 14.609375 -16.03125 C 14.429688 -16.164062 14.273438 -16.285156 14.140625 -16.390625 C 14.003906 -16.503906 13.9375 -16.671875 13.9375 -16.890625 C 13.9375 -17.117188 14.023438 -17.273438 14.203125 -17.359375 C 14.390625 -17.441406 14.675781 -17.484375 15.0625 -17.484375 Z M 15.0625 -17.484375 "/></g></g></g><path fill="#9f8bff" d="M 371.339844 448.589844 C 364.46875 435.539062 352.351562 428.859375 343.425781 431.386719 C 331.1875 434.855469 329.351562 454.390625 329.953125 463.484375 C 331.730469 490.171875 359.738281 505.140625 363.050781 506.847656 C 370.09375 504.742188 395.027344 496.363281 404.667969 473.3125 C 405.777344 470.652344 414.296875 450.285156 404.941406 442.15625 C 398.242188 436.332031 383.839844 438.0625 371.339844 448.589844 Z M 371.339844 448.589844 " fill-opacity="1" fill-rule="nonzero"/><g clip-path="url(#0984de0ff9)"><path stroke-linecap="butt" transform="matrix(0.244212, 0, 0, 0.244212, 329.084193, 355.773783)" fill="none" stroke-linejoin="miter" d="M 173.028263 380.062815 C 144.892537 326.622531 95.275128 299.270575 58.725877 309.619531 C 8.612614 323.823354 1.094825 403.81583 3.5581 441.052879 C 10.83596 550.332742 125.522233 611.626717 139.086244 618.616661 C 167.925763 609.995197 270.023738 575.685287 309.500129 481.297044 C 314.042793 470.404248 348.928534 387.004774 310.6198 353.718563 C 283.187867 329.869576 224.21321 336.955492 173.028263 380.062815 Z M 173.028263 380.062815 " stroke="#774a15" stroke-width="6.304" stroke-opacity="1" stroke-miterlimit="10"/></g><path fill="#9f8bff" d="M 444.441406 446.769531 C 437.964844 440.734375 429.773438 439.347656 425.214844 442.550781 C 418.964844 446.9375 421.792969 458.371094 423.9375 463.40625 C 430.230469 478.179688 449.066406 481.113281 451.28125 481.421875 C 454.855469 478.835938 467.324219 469.148438 468.222656 454.175781 C 468.328125 452.453125 469.121094 439.222656 462.210938 436.46875 C 457.257812 434.496094 449.4375 438.328125 444.441406 446.769531 Z M 444.441406 446.769531 " fill-opacity="1" fill-rule="nonzero"/><path fill="#0d0149" d="M 369.605469 459.734375 C 365.484375 451.902344 358.207031 447.890625 352.851562 449.40625 C 345.503906 451.488281 344.402344 463.214844 344.765625 468.671875 C 345.828125 484.695312 362.644531 493.679688 364.632812 494.703125 C 368.859375 493.4375 383.828125 488.410156 389.613281 474.570312 C 390.277344 472.976562 395.394531 460.75 389.777344 455.867188 C 385.753906 452.375 377.109375 453.414062 369.605469 459.734375 Z M 369.605469 459.734375 " fill-opacity="1" fill-rule="nonzero"/><path fill="#9f8bff" d="M 532.824219 431.808594 C 521.511719 419.929688 506.515625 416.457031 497.730469 421.875 C 485.691406 429.300781 489.652344 450.757812 493.0625 460.304688 C 503.0625 488.324219 537.574219 495.835938 541.636719 496.65625 C 548.53125 492.265625 572.667969 475.730469 575.984375 448.140625 C 576.367188 444.960938 579.300781 420.582031 566.824219 414.722656 C 557.882812 410.527344 543.003906 416.75 532.824219 431.808594 Z M 532.824219 431.808594 " fill-opacity="1" fill-rule="nonzero"/><g clip-path="url(#537617b8d8)"><path stroke-linecap="butt" transform="matrix(0.244212, 0, 0, 0.244212, 329.084193, 355.773783)" fill="none" stroke-linejoin="miter" d="M 834.273803 311.347023 C 787.951425 262.705328 726.545484 248.48551 690.572063 270.670985 C 641.27456 301.078043 657.493791 388.940205 671.457684 428.032708 C 712.405642 542.766967 853.724083 573.525922 870.359191 576.884934 C 898.590889 558.906221 997.425823 491.198133 1011.005829 378.223356 C 1012.573368 365.203185 1024.585836 265.376542 973.49686 241.383598 C 936.883627 224.20465 875.957545 249.685157 834.273803 311.347023 Z M 834.273803 311.347023 " stroke="#774a15" stroke-width="8.405" stroke-opacity="1" stroke-miterlimit="10"/></g><path fill="#0d0149" d="M 534.617188 444.664062 C 528.617188 438.355469 520.660156 436.519531 516 439.390625 C 509.609375 443.328125 511.710938 454.714844 513.519531 459.78125 C 518.828125 474.648438 537.140625 478.632812 539.296875 479.070312 C 542.957031 476.742188 555.761719 467.96875 557.523438 453.328125 C 557.726562 451.640625 559.28125 438.703125 552.660156 435.59375 C 547.914062 433.371094 540.019531 436.671875 534.617188 444.664062 Z M 534.617188 444.664062 " fill-opacity="1" fill-rule="nonzero"/><path fill="#9f8bff" d="M 694.308594 378.554688 C 682.21875 371.148438 668.921875 371.585938 662.789062 378.0625 C 654.382812 386.945312 662.464844 403.984375 667.4375 411.203125 C 682.023438 432.378906 712.519531 430.976562 716.101562 430.757812 C 720.882812 425.558594 737.363281 406.378906 733.996094 382.589844 C 733.609375 379.851562 730.632812 358.835938 718.90625 356.714844 C 710.507812 355.199219 699.460938 363.710938 694.308594 378.554688 Z M 694.308594 378.554688 " fill-opacity="1" fill-rule="nonzero"/><g clip-path="url(#b788e937f3)"><path stroke-linecap="butt" transform="matrix(0.244212, 0, 0, 0.244212, 329.084193, 355.773783)" fill="none" stroke-linejoin="miter" d="M 1495.519343 93.283152 C 1446.013902 62.95607 1391.565914 64.747544 1366.453299 91.267745 C 1332.031422 127.641048 1365.12569 197.412529 1385.487702 226.971837 C 1445.214137 313.682337 1570.089414 307.940025 1584.7571 307.044289 C 1604.335343 285.75455 1671.819497 207.217646 1658.031552 109.806293 C 1656.448017 98.59359 1644.259602 12.538897 1596.241723 3.853451 C 1561.851836 -2.352724 1516.617139 32.501027 1495.519343 93.283152 Z M 1495.519343 93.283152 " stroke="#774a15" stroke-width="6.304" stroke-opacity="1" stroke-miterlimit="10"/></g><path fill="#9f8bff" d="M 615.625 407.703125 C 608.289062 402.851562 600.035156 402.832031 596.09375 406.714844 C 590.6875 412.039062 595.335938 422.78125 598.257812 427.363281 C 606.839844 440.804688 625.78125 440.597656 628.003906 440.539062 C 631.078125 437.417969 641.710938 425.882812 640.136719 411.0625 C 639.957031 409.355469 638.566406 396.265625 631.34375 394.695312 C 626.167969 393.574219 619.136719 398.613281 615.625 407.703125 Z M 615.625 407.703125 " fill-opacity="1" fill-rule="nonzero"/><path fill="#0d0149" d="M 698.097656 387.695312 C 690.761719 382.84375 682.507812 382.824219 678.566406 386.707031 C 673.164062 392.03125 677.808594 402.773438 680.730469 407.355469 C 689.316406 420.796875 708.253906 420.585938 710.476562 420.527344 C 713.550781 417.40625 724.183594 405.875 722.609375 391.054688 C 722.429688 389.347656 721.039062 376.257812 713.816406 374.6875 C 708.644531 373.566406 701.609375 378.601562 698.097656 387.695312 Z M 698.097656 387.695312 " fill-opacity="1" fill-rule="nonzero"/></svg>